# xmcd
#
# Track frame offsets: 
#        150
#        14704
#        29648
#        42990
#        56302
#        71484
#        85588
#        102322
#        117326
#        131976
#        146016
#        162369
#        178503
#        195797
#        210146
#
# Disc length: 2992 seconds
#
# Revision: 0
# Processed by: cddbd v1.5.2PL0 Copyright (c) Steve Scherf et al.
# Submitted via: ExactAudioCopy v0.95b3
#
DISCID=cc0bae0f
DTITLE=Dion  - Heroes - Giants of Early Guitar Rock  WAV
DYEAR=1900
DGENRE=
TTITLE0=Summertime Blues
TTITLE1=Come on, Let's Go
TTITLE2=Rave On
TTITLE3=Believe What You Say
TTITLE4=Bye Bye Love
TTITLE5=Be-Bop-A-Lula
TTITLE6=Runaway
TTITLE7=Jailhouse Rock
TTITLE8=I Walk the Line
TTITLE9=Blue Suede Shoes
TTITLE10=Who Do You Love
TTITLE11=Sweet Little Rock and Roller
TTITLE12=Dream Baby
TTITLE13=Shake, Rattle and Roll
TTITLE14=The Wanderer
EXTD=
EXTT0=
EXTT1=
EXTT2=
EXTT3=
EXTT4=
EXTT5=
EXTT6=
EXTT7=
EXTT8=
EXTT9=
EXTT10=
EXTT11=
EXTT12=
EXTT13=
EXTT14=
PLAYORDER=
